# xmcd CD database file
#
# Track frame offsets:
#	150
#	17056
#	44773
#	63108
#	84660
#	100998
#	112142
#	131515
#	157998
#	181709
#	199552
#	221023
#	245020
#	257640
#	276302
#	295246
#	313442
#	328989
#
# Disc length: 4644 seconds
#
# Revision: 0
# Processed by: cddbd v1.5.1PL0 Copyright (c) Steve Scherf et al.
# Submitted via: CDex 1.51
#
DISCID=16122212
DTITLE=Daeseob Lim - New Age and Piano Jazz collection
DYEAR=2005
DGENRE=New Age
TTITLE0=Andante, Love is
TTITLE1=Isao Sasaki, Skywalker
TTITLE2=Isao Sasaki, Princess of flowers
TTITLE3=Isao Sasaki, Loving you
TTITLE4=Isao Sasaki, »ç¶ûÀÇ ÀÎ»ç
TTITLE5=Ennio Morricone, Sentimental walk
TTITLE6=European Jazz Trio, Endless love (Lionel Richie)
TTITLE7=Andre Gagnon, Les jours tranquilles
TTITLE8=Andre Gagnon, Soirs d'ete
TTITLE9=Andre Gagnon, Comme au premier jour
TTITLE10=Andre Gagnon, Have yourself a merry little christmas
TTITLE11=¹ÚÁ¾ÈÆ, Andante tenderly
TTITLE12=¹ÚÁ¾ÈÆ, Prelude no. 2
TTITLE13=¹ÚÁ¾ÈÆ, Flying high (in my sky)
TTITLE14=Yiruma, I
TTITLE15=Yiruma, MAY Be
TTITLE16=Yiruma, If I could see you again
TTITLE17=³ÃÁ¤°ú ¿­Á¤ »çÀÌ OST, The whole nine yards
EXTD=YEAR: 2005
EXTT0=
EXTT1=
EXTT2=
EXTT3=
EXTT4=
EXTT5=
EXTT6=
EXTT7=
EXTT8=
EXTT9=
EXTT10=
EXTT11=
EXTT12=
EXTT13=
EXTT14=
EXTT15=
EXTT16=
EXTT17=
PLAYORDER=
